<svg viewBox="0 0 1200 900" xmlns="http://www.w3.org/2000/svg">
  <!-- Background -->
  <rect width="1200" height="900" fill="#f8f9fa"/>
  
  <!-- Title -->
  <text x="600" y="40" font-family="Arial" font-size="28" font-weight="bold" text-anchor="middle" fill="#1a1a1a">Fashion MNIST: Professional ML Engineer Local Architecture</text>
  
  <!-- Data Engineering Layer -->
  <rect x="50" y="80" width="1100" height="140" fill="#fff3e0" stroke="#f57c00" stroke-width="2" rx="5"/>
  <text x="100" y="110" font-family="Arial" font-size="18" font-weight="bold" fill="#e65100">Phase 1: Data Engineering &amp; Preparation</text>
  
  <!-- Data Engineering Components -->
  <rect x="100" y="130" width="140" height="70" fill="#ffe0b2" stroke="#f57c00" stroke-width="1" rx="5"/>
  <text x="170" y="155" font-family="Arial" font-size="14" text-anchor="middle" fill="#bf360c">MinIO</text>
  <text x="170" y="175" font-family="Arial" font-size="11" text-anchor="middle" fill="#666">Data Storage</text>
  
  <rect x="260" y="130" width="140" height="70" fill="#ffe0b2" stroke="#f57c00" stroke-width="1" rx="5"/>
  <text x="330" y="155" font-family="Arial" font-size="14" text-anchor="middle" fill="#bf360c">DVC</text>
  <text x="330" y="175" font-family="Arial" font-size="11" text-anchor="middle" fill="#666">Data Versioning</text>
  
  <rect x="420" y="130" width="140" height="70" fill="#ffe0b2" stroke="#f57c00" stroke-width="1" rx="5"/>
  <text x="490" y="155" font-family="Arial" font-size="14" text-anchor="middle" fill="#bf360c">Apache Airflow</text>
  <text x="490" y="175" font-family="Arial" font-size="11" text-anchor="middle" fill="#666">ETL Orchestration</text>
  
  <rect x="580" y="130" width="140" height="70" fill="#ffe0b2" stroke="#f57c00" stroke-width="1" rx="5"/>
  <text x="650" y="155" font-family="Arial" font-size="14" text-anchor="middle" fill="#bf360c">Great Expectations</text>
  <text x="650" y="175" font-family="Arial" font-size="11" text-anchor="middle" fill="#666">Data Validation</text>
  
  <rect x="740" y="130" width="140" height="70" fill="#ffe0b2" stroke="#f57c00" stroke-width="1" rx="5"/>
  <text x="810" y="155" font-family="Arial" font-size="14" text-anchor="middle" fill="#bf360c">PostgreSQL</text>
  <text x="810" y="175" font-family="Arial" font-size="11" text-anchor="middle" fill="#666">Metadata Store</text>
  
  <rect x="900" y="130" width="140" height="70" fill="#ffe0b2" stroke="#f57c00" stroke-width="1" rx="5"/>
  <text x="970" y="155" font-family="Arial" font-size="14" text-anchor="middle" fill="#bf360c">FastAPI</text>
  <text x="970" y="175" font-family="Arial" font-size="11" text-anchor="middle" fill="#666">Data APIs</text>
  
  <!-- Model Development Layer -->
  <rect x="50" y="240" width="1100" height="140" fill="#e8f5e9" stroke="#388e3c" stroke-width="2" rx="5"/>
  <text x="100" y="270" font-family="Arial" font-size="18" font-weight="bold" fill="#2e7d32">Phase 2: Model Development &amp; Training</text>
  
  <!-- Model Development Components -->
  <rect x="100" y="290" width="170" height="70" fill="#c8e6c9" stroke="#388e3c" stroke-width="1" rx="5"/>
  <text x="185" y="315" font-family="Arial" font-size="14" text-anchor="middle" fill="#1b5e20">JupyterLab</text>
  <text x="185" y="335" font-family="Arial" font-size="11" text-anchor="middle" fill="#666">Interactive Dev</text>
  
  <rect x="290" y="290" width="170" height="70" fill="#c8e6c9" stroke="#388e3c" stroke-width="1" rx="5"/>
  <text x="375" y="315" font-family="Arial" font-size="14" text-anchor="middle" fill="#1b5e20">MLflow</text>
  <text x="375" y="335" font-family="Arial" font-size="11" text-anchor="middle" fill="#666">Experiment Tracking</text>
  
  <rect x="480" y="290" width="170" height="70" fill="#c8e6c9" stroke="#388e3c" stroke-width="1" rx="5"/>
  <text x="565" y="315" font-family="Arial" font-size="14" text-anchor="middle" fill="#1b5e20">Optuna</text>
  <text x="565" y="335" font-family="Arial" font-size="11" text-anchor="middle" fill="#666">Hyperparameter Tuning</text>
  
  <rect x="670" y="290" width="170" height="70" fill="#c8e6c9" stroke="#388e3c" stroke-width="1" rx="5"/>
  <text x="755" y="315" font-family="Arial" font-size="14" text-anchor="middle" fill="#1b5e20">TensorFlow/PyTorch</text>
  <text x="755" y="335" font-family="Arial" font-size="11" text-anchor="middle" fill="#666">ML Frameworks</text>
  
  <rect x="860" y="290" width="170" height="70" fill="#c8e6c9" stroke="#388e3c" stroke-width="1" rx="5"/>
  <text x="945" y="315" font-family="Arial" font-size="14" text-anchor="middle" fill="#1b5e20">Docker</text>
  <text x="945" y="335" font-family="Arial" font-size="11" text-anchor="middle" fill="#666">Environment Management</text>
  
  <!-- Model Evaluation Layer -->
  <rect x="50" y="400" width="1100" height="140" fill="#e3f2fd" stroke="#1976d2" stroke-width="2" rx="5"/>
  <text x="100" y="430" font-family="Arial" font-size="18" font-weight="bold" fill="#1565c0">Phase 3: Model Evaluation &amp; Validation</text>
  
  <!-- Model Evaluation Components -->
  <rect x="100" y="450" width="170" height="70" fill="#bbdefb" stroke="#1976d2" stroke-width="1" rx="5"/>
  <text x="185" y="475" font-family="Arial" font-size="14" text-anchor="middle" fill="#0d47a1">Evidently AI</text>
  <text x="185" y="495" font-family="Arial" font-size="11" text-anchor="middle" fill="#666">Performance Analysis</text>
  
  <rect x="290" y="450" width="170" height="70" fill="#bbdefb" stroke="#1976d2" stroke-width="1" rx="5"/>
  <text x="375" y="475" font-family="Arial" font-size="14" text-anchor="middle" fill="#0d47a1">SHAP/LIME</text>
  <text x="375" y="495" font-family="Arial" font-size="11" text-anchor="middle" fill="#666">Model Explainability</text>
  
  <rect x="480" y="450" width="170" height="70" fill="#bbdefb" stroke="#1976d2" stroke-width="1" rx="5"/>
  <text x="565" y="475" font-family="Arial" font-size="14" text-anchor="middle" fill="#0d47a1">pytest</text>
  <text x="565" y="495" font-family="Arial" font-size="11" text-anchor="middle" fill="#666">Testing Framework</text>
  
  <rect x="670" y="450" width="170" height="70" fill="#bbdefb" stroke="#1976d2" stroke-width="1" rx="5"/>
  <text x="755" y="475" font-family="Arial" font-size="14" text-anchor="middle" fill="#0d47a1">Grafana</text>
  <text x="755" y="495" font-family="Arial" font-size="11" text-anchor="middle" fill="#666">Visualization Dashboards</text>
  
  <rect x="860" y="450" width="170" height="70" fill="#bbdefb" stroke="#1976d2" stroke-width="1" rx="5"/>
  <text x="945" y="475" font-family="Arial" font-size="14" text-anchor="middle" fill="#0d47a1">Streamlit</text>
  <text x="945" y="495" font-family="Arial" font-size="11" text-anchor="middle" fill="#666">Interactive Analysis</text>
  
  <!-- Deployment Layer -->
  <rect x="50" y="560" width="1100" height="140" fill="#f3e5f5" stroke="#7b1fa2" stroke-width="2" rx="5"/>
  <text x="100" y="590" font-family="Arial" font-size="18" font-weight="bold" fill="#6a1b9a">Phase 4: Deployment &amp; Serving</text>
  
  <!-- Deployment Components -->
  <rect x="100" y="610" width="170" height="70" fill="#e1bee7" stroke="#7b1fa2" stroke-width="1" rx="5"/>
  <text x="185" y="635" font-family="Arial" font-size="14" text-anchor="middle" fill="#4a148c">FastAPI + Uvicorn</text>
  <text x="185" y="655" font-family="Arial" font-size="11" text-anchor="middle" fill="#666">Model Serving API</text>
  
  <rect x="290" y="610" width="170" height="70" fill="#e1bee7" stroke="#7b1fa2" stroke-width="1" rx="5"/>
  <text x="375" y="635" font-family="Arial" font-size="14" text-anchor="middle" fill="#4a148c">Docker</text>
  <text x="375" y="655" font-family="Arial" font-size="11" text-anchor="middle" fill="#666">Containerization</text>
  
  <rect x="480" y="610" width="170" height="70" fill="#e1bee7" stroke="#7b1fa2" stroke-width="1" rx="5"/>
  <text x="565" y="635" font-family="Arial" font-size="14" text-anchor="middle" fill="#4a148c">Nginx</text>
  <text x="565" y="655" font-family="Arial" font-size="11" text-anchor="middle" fill="#666">Reverse Proxy</text>
  
  <rect x="670" y="610" width="170" height="70" fill="#e1bee7" stroke="#7b1fa2" stroke-width="1" rx="5"/>
  <text x="755" y="635" font-family="Arial" font-size="14" text-anchor="middle" fill="#4a148c">Redis</text>
  <text x="755" y="655" font-family="Arial" font-size="11" text-anchor="middle" fill="#666">Prediction Caching</text>
  
  <rect x="860" y="610" width="170" height="70" fill="#e1bee7" stroke="#7b1fa2" stroke-width="1" rx="5"/>
  <text x="945" y="635" font-family="Arial" font-size="14" text-anchor="middle" fill="#4a148c">Docker Compose</text>
  <text x="945" y="655" font-family="Arial" font-size="11" text-anchor="middle" fill="#666">Orchestration</text>
  
  <!-- Monitoring Layer -->
  <rect x="50" y="720" width="550" height="140" fill="#fce4ec" stroke="#c2185b" stroke-width="2" rx="5"/>
  <text x="100" y="750" font-family="Arial" font-size="18" font-weight="bold" fill="#ad1457">Phase 5: Monitoring &amp; Maintenance</text>
  
  <!-- Monitoring Components -->
  <rect x="100" y="770" width="170" height="70" fill="#f8bbd0" stroke="#c2185b" stroke-width="1" rx="5"/>
  <text x="185" y="795" font-family="Arial" font-size="14" text-anchor="middle" fill="#880e4f">Prometheus</text>
  <text x="185" y="815" font-family="Arial" font-size="11" text-anchor="middle" fill="#666">Metrics Collection</text>
  
  <rect x="290" y="770" width="170" height="70" fill="#f8bbd0" stroke="#c2185b" stroke-width="1" rx="5"/>
  <text x="375" y="795" font-family="Arial" font-size="14" text-anchor="middle" fill="#880e4f">Evidently AI</text>
  <text x="375" y="815" font-family="Arial" font-size="11" text-anchor="middle" fill="#666">Drift Detection</text>
  
  <rect x="480" y="770" width="100" height="70" fill="#f8bbd0" stroke="#c2185b" stroke-width="1" rx="5"/>
  <text x="530" y="795" font-family="Arial" font-size="14" text-anchor="middle" fill="#880e4f">Loki</text>
  <text x="530" y="815" font-family="Arial" font-size="11" text-anchor="middle" fill="#666">Log Aggregation</text>
  
  <!-- MLOps Layer -->
  <rect x="620" y="720" width="530" height="140" fill="#ede7f6" stroke="#512da8" stroke-width="2" rx="5"/>
  <text x="670" y="750" font-family="Arial" font-size="18" font-weight="bold" fill="#4527a0">Phase 6: MLOps &amp; Automation</text>
  
  <!-- MLOps Components -->
  <rect x="670" y="770" width="140" height="70" fill="#d1c4e9" stroke="#512da8" stroke-width="1" rx="5"/>
  <text x="740" y="795" font-family="Arial" font-size="14" text-anchor="middle" fill="#311b92">GitHub Actions</text>
  <text x="740" y="815" font-family="Arial" font-size="11" text-anchor="middle" fill="#666">CI/CD Pipeline</text>
  
  <rect x="830" y="770" width="140" height="70" fill="#d1c4e9" stroke="#512da8" stroke-width="1" rx="5"/>
  <text x="900" y="795" font-family="Arial" font-size="14" text-anchor="middle" fill="#311b92">pre-commit</text>
  <text x="900" y="815" font-family="Arial" font-size="11" text-anchor="middle" fill="#666">Code Quality</text>
  
  <rect x="990" y="770" width="140" height="70" fill="#d1c4e9" stroke="#512da8" stroke-width="1" rx="5"/>
  <text x="1060" y="795" font-family="Arial" font-size="14" text-anchor="middle" fill="#311b92">Make</text>
  <text x="1060" y="815" font-family="Arial" font-size="11" text-anchor="middle" fill="#666">Task Automation</text>
</svg>