<svg viewBox="0 0 1400 900" xmlns="http://www.w3.org/2000/svg">
  <!-- Background -->
  <rect width="1400" height="900" fill="#f8f9fa"/>
  
  <!-- Title -->
  <text x="700" y="40" font-family="Arial" font-size="28" font-weight="bold" text-anchor="middle" fill="#1a1a1a">Fashion MNIST: Professional ML Engineer Local Development Roadmap</text>
  
  <!-- Phase 1: Data Engineering -->
  <rect x="50" y="80" width="400" height="350" fill="#fff3e0" stroke="#ef6c00" stroke-width="2" rx="10"/>
  <text x="250" y="110" font-family="Arial" font-size="18" font-weight="bold" text-anchor="middle" fill="#e65100">Phase 1: Data Engineering &amp; Preparation</text>
  
  <!-- Phase 1 Tasks -->
  <rect x="70" y="140" width="180" height="35" fill="#ffe0b2" stroke="#ef6c00" stroke-width="1" rx="5"/>
  <text x="160" y="162" font-family="Arial" font-size="12" text-anchor="middle" fill="#000">1.1 Set up MinIO buckets</text>
  
  <rect x="70" y="185" width="180" height="35" fill="#ffe0b2" stroke="#ef6c00" stroke-width="1" rx="5"/>
  <text x="160" y="207" font-family="Arial" font-size="12" text-anchor="middle" fill="#000">1.2 Configure DVC</text>
  
  <rect x="70" y="230" width="180" height="35" fill="#ffe0b2" stroke="#ef6c00" stroke-width="1" rx="5"/>
  <text x="160" y="252" font-family="Arial" font-size="12" text-anchor="middle" fill="#000">1.3 Create Airflow DAGs</text>
  
  <rect x="70" y="275" width="180" height="35" fill="#ffe0b2" stroke="#ef6c00" stroke-width="1" rx="5"/>
  <text x="160" y="297" font-family="Arial" font-size="12" text-anchor="middle" fill="#000">1.4 Data validation rules</text>
  
  <rect x="70" y="320" width="180" height="35" fill="#ffe0b2" stroke="#ef6c00" stroke-width="1" rx="5"/>
  <text x="160" y="342" font-family="Arial" font-size="12" text-anchor="middle" fill="#000">1.5 Feature engineering</text>
  
  <rect x="70" y="365" width="180" height="35" fill="#ffe0b2" stroke="#ef6c00" stroke-width="1" rx="5"/>
  <text x="160" y="387" font-family="Arial" font-size="12" text-anchor="middle" fill="#000">1.6 Data access APIs</text>
  
  <!-- Tech Stack for Phase 1 -->
  <rect x="260" y="140" width="170" height="260" fill="#fff8e1" stroke="#ff8f00" stroke-width="1" rx="5"/>
  <text x="345" y="160" font-family="Arial" font-size="14" font-weight="bold" text-anchor="middle" fill="#ff6f00">Tech Stack</text>
  <text x="265" y="185" font-family="Arial" font-size="11" fill="#666">• MinIO</text>
  <text x="265" y="205" font-family="Arial" font-size="11" fill="#666">• DVC</text>
  <text x="265" y="225" font-family="Arial" font-size="11" fill="#666">• Apache Airflow</text>
  <text x="265" y="245" font-family="Arial" font-size="11" fill="#666">• Great Expectations</text>
  <text x="265" y="265" font-family="Arial" font-size="11" fill="#666">• PostgreSQL</text>
  <text x="265" y="285" font-family="Arial" font-size="11" fill="#666">• FastAPI</text>
  <text x="265" y="305" font-family="Arial" font-size="11" fill="#666">• Pandas/Dask</text>
  <text x="265" y="325" font-family="Arial" font-size="11" fill="#666">• Redis</text>
  
  <!-- Phase 2: Model Development -->
  <rect x="480" y="80" width="400" height="350" fill="#e8f5e9" stroke="#2e7d32" stroke-width="2" rx="10"/>
  <text x="680" y="110" font-family="Arial" font-size="18" font-weight="bold" text-anchor="middle" fill="#1b5e20">Phase 2: Model Development &amp; Training</text>
  
  <!-- Phase 2 Tasks -->
  <rect x="500" y="140" width="180" height="35" fill="#c8e6c9" stroke="#2e7d32" stroke-width="1" rx="5"/>
  <text x="590" y="162" font-family="Arial" font-size="12" text-anchor="middle" fill="#000">2.1 MLflow tracking server</text>
  
  <rect x="500" y="185" width="180" height="35" fill="#c8e6c9" stroke="#2e7d32" stroke-width="1" rx="5"/>
  <text x="590" y="207" font-family="Arial" font-size="12" text-anchor="middle" fill="#000">2.2 Jupyter notebooks</text>
  
  <rect x="500" y="230" width="180" height="35" fill="#c8e6c9" stroke="#2e7d32" stroke-width="1" rx="5"/>
  <text x="590" y="252" font-family="Arial" font-size="12" text-anchor="middle" fill="#000">2.3 Baseline models</text>
  
  <rect x="500" y="275" width="180" height="35" fill="#c8e6c9" stroke="#2e7d32" stroke-width="1" rx="5"/>
  <text x="590" y="297" font-family="Arial" font-size="12" text-anchor="middle" fill="#000">2.4 Custom CNN</text>
  
  <rect x="500" y="320" width="180" height="35" fill="#c8e6c9" stroke="#2e7d32" stroke-width="1" rx="5"/>
  <text x="590" y="342" font-family="Arial" font-size="12" text-anchor="middle" fill="#000">2.5 Hyperparameter tuning</text>
  
  <rect x="500" y="365" width="180" height="35" fill="#c8e6c9" stroke="#2e7d32" stroke-width="1" rx="5"/>
  <text x="590" y="387" font-family="Arial" font-size="12" text-anchor="middle" fill="#000">2.6 Model Registry</text>
  
  <!-- Tech Stack for Phase 2 -->
  <rect x="690" y="140" width="170" height="260" fill="#e8f5e9" stroke="#43a047" stroke-width="1" rx="5"/>
  <text x="775" y="160" font-family="Arial" font-size="14" font-weight="bold" text-anchor="middle" fill="#2e7d32">Tech Stack</text>
  <text x="695" y="185" font-family="Arial" font-size="11" fill="#666">• JupyterLab</text>
  <text x="695" y="205" font-family="Arial" font-size="11" fill="#666">• MLflow</text>
  <text x="695" y="225" font-family="Arial" font-size="11" fill="#666">• Optuna</text>
  <text x="695" y="245" font-family="Arial" font-size="11" fill="#666">• TensorFlow/PyTorch</text>
  <text x="695" y="265" font-family="Arial" font-size="11" fill="#666">• scikit-learn</text>
  <text x="695" y="285" font-family="Arial" font-size="11" fill="#666">• Docker</text>
  <text x="695" y="305" font-family="Arial" font-size="11" fill="#666">• Poetry/pip</text>
  <text x="695" y="325" font-family="Arial" font-size="11" fill="#666">• Git</text>
  
  <!-- Phase 3: Model Evaluation -->
  <rect x="910" y="80" width="400" height="350" fill="#e3f2fd" stroke="#1565c0" stroke-width="2" rx="10"/>
  <text x="1110" y="110" font-family="Arial" font-size="18" font-weight="bold" text-anchor="middle" fill="#0d47a1">Phase 3: Model Evaluation &amp; Validation</text>
  
  <!-- Phase 3 Tasks -->
  <rect x="930" y="140" width="180" height="35" fill="#bbdefb" stroke="#1565c0" stroke-width="1" rx="5"/>
  <text x="1020" y="162" font-family="Arial" font-size="12" text-anchor="middle" fill="#000">3.1 Evaluation metrics</text>
  
  <rect x="930" y="185" width="180" height="35" fill="#bbdefb" stroke="#1565c0" stroke-width="1" rx="5"/>
  <text x="1020" y="207" font-family="Arial" font-size="12" text-anchor="middle" fill="#000">3.2 Explainability analysis</text>
  
  <rect x="930" y="230" width="180" height="35" fill="#bbdefb" stroke="#1565c0" stroke-width="1" rx="5"/>
  <text x="1020" y="252" font-family="Arial" font-size="12" text-anchor="middle" fill="#000">3.3 Bias detection</text>
  
  <rect x="930" y="275" width="180" height="35" fill="#bbdefb" stroke="#1565c0" stroke-width="1" rx="5"/>
  <text x="1020" y="297" font-family="Arial" font-size="12" text-anchor="middle" fill="#000">3.4 Performance dashboards</text>
  
  <rect x="930" y="320" width="180" height="35" fill="#bbdefb" stroke="#1565c0" stroke-width="1" rx="5"/>
  <text x="1020" y="342" font-family="Arial" font-size="12" text-anchor="middle" fill="#000">3.5 A/B testing framework</text>
  
  <rect x="930" y="365" width="180" height="35" fill="#bbdefb" stroke="#1565c0" stroke-width="1" rx="5"/>
  <text x="1020" y="387" font-family="Arial" font-size="12" text-anchor="middle" fill="#000">3.6 Automated testing</text>
  
  <!-- Tech Stack for Phase 3 -->
  <rect x="1120" y="140" width="170" height="260" fill="#e3f2fd" stroke="#42a5f5" stroke-width="1" rx="5"/>
  <text x="1205" y="160" font-family="Arial" font-size="14" font-weight="bold" text-anchor="middle" fill="#1565c0">Tech Stack</text>
  <text x="1125" y="185" font-family="Arial" font-size="11" fill="#666">• MLflow</text>
  <text x="1125" y="205" font-family="Arial" font-size="11" fill="#666">• Evidently AI</text>
  <text x="1125" y="225" font-family="Arial" font-size="11" fill="#666">• SHAP/LIME</text>
  <text x="1125" y="245" font-family="Arial" font-size="11" fill="#666">• pytest</text>
  <text x="1125" y="265" font-family="Arial" font-size="11" fill="#666">• Grafana</text>
  <text x="1125" y="285" font-family="Arial" font-size="11" fill="#666">• Streamlit</text>
  <text x="1125" y="305" font-family="Arial" font-size="11" fill="#666">• Matplotlib/Seaborn</text>
  <text x="1125" y="325" font-family="Arial" font-size="11" fill="#666">• TensorBoard</text>
  
  <!-- Phase 4: Deployment -->
  <rect x="50" y="450" width="400" height="350" fill="#f3e5f5" stroke="#6a1b9a" stroke-width="2" rx="10"/>
  <text x="250" y="480" font-family="Arial" font-size="18" font-weight="bold" text-anchor="middle" fill="#4a148c">Phase 4: Deployment &amp; Serving</text>
  
  <!-- Phase 4 Tasks -->
  <rect x="70" y="510" width="180" height="35" fill="#e1bee7" stroke="#6a1b9a" stroke-width="1" rx="5"/>
  <text x="160" y="532" font-family="Arial" font-size="12" text-anchor="middle" fill="#000">4.1 FastAPI endpoints</text>
  
  <rect x="70" y="555" width="180" height="35" fill="#e1bee7" stroke="#6a1b9a" stroke-width="1" rx="5"/>
  <text x="160" y="577" font-family="Arial" font-size="12" text-anchor="middle" fill="#000">4.2 Docker containerization</text>
  
  <rect x="70" y="600" width="180" height="35" fill="#e1bee7" stroke="#6a1b9a" stroke-width="1" rx="5"/>
  <text x="160" y="622" font-family="Arial" font-size="12" text-anchor="middle" fill="#000">4.3 Nginx reverse proxy</text>
  
  <rect x="70" y="645" width="180" height="35" fill="#e1bee7" stroke="#6a1b9a" stroke-width="1" rx="5"/>
  <text x="160" y="667" font-family="Arial" font-size="12" text-anchor="middle" fill="#000">4.4 Redis caching</text>
  
  <rect x="70" y="690" width="180" height="35" fill="#e1bee7" stroke="#6a1b9a" stroke-width="1" rx="5"/>
  <text x="160" y="712" font-family="Arial" font-size="12" text-anchor="middle" fill="#000">4.5 Batch inference</text>
  
  <rect x="70" y="735" width="180" height="35" fill="#e1bee7" stroke="#6a1b9a" stroke-width="1" rx="5"/>
  <text x="160" y="757" font-family="Arial" font-size="12" text-anchor="middle" fill="#000">4.6 Multi-model serving</text>
  
  <!-- Tech Stack for Phase 4 -->
  <rect x="260" y="510" width="170" height="260" fill="#f3e5f5" stroke="#ab47bc" stroke-width="1" rx="5"/>
  <text x="345" y="530" font-family="Arial" font-size="14" font-weight="bold" text-anchor="middle" fill="#6a1b9a">Tech Stack</text>
  <text x="265" y="555" font-family="Arial" font-size="11" fill="#666">• FastAPI</text>
  <text x="265" y="575" font-family="Arial" font-size="11" fill="#666">• Uvicorn</text>
  <text x="265" y="595" font-family="Arial" font-size="11" fill="#666">• Docker</text>
  <text x="265" y="615" font-family="Arial" font-size="11" fill="#666">• Nginx</text>
  <text x="265" y="635" font-family="Arial" font-size="11" fill="#666">• Docker Compose</text>
  <text x="265" y="655" font-family="Arial" font-size="11" fill="#666">• Redis</text>
  <text x="265" y="675" font-family="Arial" font-size="11" fill="#666">• PostgreSQL</text>
  <text x="265" y="695" font-family="Arial" font-size="11" fill="#666">• GitHub Actions</text>
  
  <!-- Phase 5: Monitoring -->
  <rect x="480" y="450" width="400" height="350" fill="#fce4ec" stroke="#ad1457" stroke-width="2" rx="10"/>
  <text x="680" y="480" font-family="Arial" font-size="18" font-weight="bold" text-anchor="middle" fill="#880e4f">Phase 5: Monitoring &amp; Maintenance</text>
  
  <!-- Phase 5 Tasks -->
  <rect x="500" y="510" width="180" height="35" fill="#f8bbd0" stroke="#ad1457" stroke-width="1" rx="5"/>
  <text x="590" y="532" font-family="Arial" font-size="12" text-anchor="middle" fill="#000">5.1 Prometheus setup</text>
  
  <rect x="500" y="555" width="180" height="35" fill="#f8bbd0" stroke="#ad1457" stroke-width="1" rx="5"/>
  <text x="590" y="577" font-family="Arial" font-size="12" text-anchor="middle" fill="#000">5.2 Grafana dashboards</text>
  
  <rect x="500" y="600" width="180" height="35" fill="#f8bbd0" stroke="#ad1457" stroke-width="1" rx="5"/>
  <text x="590" y="622" font-family="Arial" font-size="12" text-anchor="middle" fill="#000">5.3 Drift detection</text>
  
  <rect x="500" y="645" width="180" height="35" fill="#f8bbd0" stroke="#ad1457" stroke-width="1" rx="5"/>
  <text x="590" y="667" font-family="Arial" font-size="12" text-anchor="middle" fill="#000">5.4 Centralized logging</text>
  
  <rect x="500" y="690" width="180" height="35" fill="#f8bbd0" stroke="#ad1457" stroke-width="1" rx="5"/>
  <text x="590" y="712" font-family="Arial" font-size="12" text-anchor="middle" fill="#000">5.5 Automated alerting</text>
  
  <rect x="500" y="735" width="180" height="35" fill="#f8bbd0" stroke="#ad1457" stroke-width="1" rx="5"/>
  <text x="590" y="757" font-family="Arial" font-size="12" text-anchor="middle" fill="#000">5.6 Performance testing</text>
  
  <!-- Tech Stack for Phase 5 -->
  <rect x="690" y="510" width="170" height="260" fill="#fce4ec" stroke="#ec407a" stroke-width="1" rx="5"/>
  <text x="775" y="530" font-family="Arial" font-size="14" font-weight="bold" text-anchor="middle" fill="#ad1457">Tech Stack</text>
  <text x="695" y="555" font-family="Arial" font-size="11" fill="#666">• Prometheus</text>
  <text x="695" y="575" font-family="Arial" font-size="11" fill="#666">• Grafana</text>
  <text x="695" y="595" font-family="Arial" font-size="11" fill="#666">• Evidently AI</text>
  <text x="695" y="615" font-family="Arial" font-size="11" fill="#666">• Loki</text>
  <text x="695" y="635" font-family="Arial" font-size="11" fill="#666">• Locust</text>
  <text x="695" y="655" font-family="Arial" font-size="11" fill="#666">• Python Logging</text>
  <text x="695" y="675" font-family="Arial" font-size="11" fill="#666">• Alert Manager</text>
  <text x="695" y="695" font-family="Arial" font-size="11" fill="#666">• Custom Scripts</text>
  
  <!-- Phase 6: MLOps -->
  <rect x="910" y="450" width="400" height="350" fill="#ede7f6" stroke="#4527a0" stroke-width="2" rx="10"/>
  <text x="1110" y="480" font-family="Arial" font-size="18" font-weight="bold" text-anchor="middle" fill="#311b92">Phase 6: MLOps &amp; Automation</text>
  
  <!-- Phase 6 Tasks -->
  <rect x="930" y="510" width="180" height="35" fill="#d1c4e9" stroke="#4527a0" stroke-width="1" rx="5"/>
  <text x="1020" y="532" font-family="Arial" font-size="12" text-anchor="middle" fill="#000">6.1 CI/CD workflows</text>
  
  <rect x="930" y="555" width="180" height="35" fill="#d1c4e9" stroke="#4527a0" stroke-width="1" rx="5"/>
  <text x="1020" y="577" font-family="Arial" font-size="12" text-anchor="middle" fill="#000">6.2 Pre-commit hooks</text>
  
  <rect x="930" y="600" width="180" height="35" fill="#d1c4e9" stroke="#4527a0" stroke-width="1" rx="5"/>
  <text x="1020" y="622" font-family="Arial" font-size="12" text-anchor="middle" fill="#000">6.3 Automated testing</text>
  
  <rect x="930" y="645" width="180" height="35" fill="#d1c4e9" stroke="#4527a0" stroke-width="1" rx="5"/>
  <text x="1020" y="667" font-family="Arial" font-size="12" text-anchor="middle" fill="#000">6.4 Makefile tasks</text>
  
  <rect x="930" y="690" width="180" height="35" fill="#d1c4e9" stroke="#4527a0" stroke-width="1" rx="5"/>
  <text x="1020" y="712" font-family="Arial" font-size="12" text-anchor="middle" fill="#000">6.5 Infrastructure as code</text>
  
  <rect x="930" y="735" width="180" height="35" fill="#d1c4e9" stroke="#4527a0" stroke-width="1" rx="5"/>
  <text x="1020" y="757" font-family="Arial" font-size="12" text-anchor="middle" fill="#000">6.6 Model retraining</text>
  
  <!-- Tech Stack for Phase 6 -->
  <rect x="1120" y="510" width="170" height="260" fill="#ede7f6" stroke="#7e57c2" stroke-width="1" rx="5"/>
  <text x="1205" y="530" font-family="Arial" font-size="14" font-weight="bold" text-anchor="middle" fill="#4527a0">Tech Stack</text>
  <text x="1125" y="555" font-family="Arial" font-size="11" fill="#666">• GitHub Actions</text>
  <text x="1125" y="575" font-family="Arial" font-size="11" fill="#666">• pre-commit</text>
  <text x="1125" y="595" font-family="Arial" font-size="11" fill="#666">• Make</text>
  <text x="1125" y="615" font-family="Arial" font-size="11" fill="#666">• Docker Compose</text>
  <text x="1125" y="635" font-family="Arial" font-size="11" fill="#666">• pytest</text>
  <text x="1125" y="655" font-family="Arial" font-size="11" fill="#666">• coverage</text>
  <text x="1125" y="675" font-family="Arial" font-size="11" fill="#666">• black/isort</text>
  <text x="1125" y="695" font-family="Arial" font-size="11" fill="#666">• flake8/pylint</text>
  
  <!-- Arrows connecting phases -->
  <path d="M 450 255 L 480 255" stroke="#666" stroke-width="2" marker-end="url(#arrowhead)"/>
  <path d="M 880 255 L 910 255" stroke="#666" stroke-width="2" marker-end="url(#arrowhead)"/>
  <path d="M 1110 430 L 1110 450 L 450 450 L 450 470" stroke="#666" stroke-width="2" marker-end="url(#arrowhead)"/>
  <path d="M 450 625 L 480 625" stroke="#666" stroke-width="2" marker-end="url(#arrowhead)"/>
  <path d="M 880 625 L 910 625" stroke="#666" stroke-width="2" marker-end="url(#arrowhead)"/>
  
  <!-- Arrow marker definition -->
  <defs>
    <marker id="arrowhead" markerWidth="10" markerHeight="7" refX="0" refY="3.5" orient="auto">
      <polygon points="0 0, 10 3.5, 0 7" fill="#666"/>
    </marker>
  </defs>
  
  <!-- Timeline indicators -->
  <rect x="50" y="820" width="1260" height="50" fill="#f5f5f5" stroke="#666" stroke-width="1" rx="5"/>
  <text x="680" y="850" font-family="Arial" font-size="16" font-weight="bold" text-anchor="middle" fill="#333">Project Timeline: 8-10 weeks</text>
  
  <!-- Timeline segments -->
  <rect x="50" y="835" width="210" height="20" fill="#ff8f00" stroke="#ef6c00" stroke-width="1"/>
  <text x="155" y="848" font-family="Arial" font-size="11" text-anchor="middle" fill="#fff">Week 1-2</text>
  
  <rect x="260" y="835" width="210" height="20" fill="#43a047" stroke="#2e7d32" stroke-width="1"/>
  <text x="365" y="848" font-family="Arial" font-size="11" text-anchor="middle" fill="#fff">Week 2-4</text>
  
  <rect x="470" y="835" width="210" height="20" fill="#1976d2" stroke="#1565c0" stroke-width="1"/>
  <text x="575" y="848" font-family="Arial" font-size="11" text-anchor="middle" fill="#fff">Week 4-5</text>
  
  <rect x="680" y="835" width="210" height="20" fill="#8e24aa" stroke="#6a1b9a" stroke-width="1"/>
  <text x="785" y="848" font-family="Arial" font-size="11" text-anchor="middle" fill="#fff">Week 5-6</text>
  
  <rect x="890" y="835" width="210" height="20" fill="#d81b60" stroke="#ad1457" stroke-width="1"/>
  <text x="995" y="848" font-family="Arial" font-size="11" text-anchor="middle" fill="#fff">Week 6-8</text>
  
  <rect x="1100" y="835" width="210" height="20" fill="#5e35b1" stroke="#4527a0" stroke-width="1"/>
  <text x="1205" y="848" font-family="Arial" font-size="11" text-anchor="middle" fill="#fff">Week 8-10</text>
</svg>