<svg width="1200" height="800" xmlns="http://www.w3.org/2000/svg">
  <!-- Background -->
  <rect width="1200" height="800" fill="#f8fafc"/>
  
  <!-- Title -->
  <text x="600" y="40" text-anchor="middle" font-family="Arial" font-size="24" font-weight="bold" fill="#1a73e8">Fashion MNIST: GCP-native Architecture</text>
  
  <!-- Data Layer -->
  <g transform="translate(50, 100)">
    <rect x="0" y="0" width="300" height="600" rx="10" fill="#e8f0fe" stroke="#4285f4" stroke-width="2"/>
    <text x="150" y="30" text-anchor="middle" font-family="Arial" font-size="18" font-weight="bold" fill="#1a73e8">Data Layer</text>
    
    <rect x="30" y="60" width="240" height="60" rx="5" fill="#ffffff" stroke="#4285f4"/>
    <text x="150" y="95" text-anchor="middle" font-family="Arial" font-size="14">Cloud Storage</text>
    
    <rect x="30" y="140" width="240" height="60" rx="5" fill="#ffffff" stroke="#4285f4"/>
    <text x="150" y="175" text-anchor="middle" font-family="Arial" font-size="14">Vertex AI Managed Datasets</text>
    
    <rect x="30" y="220" width="240" height="60" rx="5" fill="#ffffff" stroke="#4285f4"/>
    <text x="150" y="255" text-anchor="middle" font-family="Arial" font-size="14">Vertex AI Feature Store</text>
  </g>
  
  <!-- Model Development Layer -->
  <g transform="translate(400, 100)">
    <rect x="0" y="0" width="350" height="300" rx="10" fill="#e6f4ea" stroke="#34a853" stroke-width="2"/>
    <text x="175" y="30" text-anchor="middle" font-family="Arial" font-size="18" font-weight="bold" fill="#137333">Model Development</text>
    
    <rect x="30" y="60" width="140" height="60" rx="5" fill="#ffffff" stroke="#34a853"/>
    <text x="100" y="90" text-anchor="middle" font-family="Arial" font-size="14">Vertex AI</text>
    <text x="100" y="105" text-anchor="middle" font-family="Arial" font-size="14">Workbench</text>
    
    <rect x="180" y="60" width="140" height="60" rx="5" fill="#ffffff" stroke="#34a853"/>
    <text x="250" y="90" text-anchor="middle" font-family="Arial" font-size="14">AutoML</text>
    <text x="250" y="105" text-anchor="middle" font-family="Arial" font-size="14">Vision</text>
    
    <rect x="30" y="140" width="140" height="60" rx="5" fill="#ffffff" stroke="#34a853"/>
    <text x="100" y="170" text-anchor="middle" font-family="Arial" font-size="14">Vertex AI</text>
    <text x="100" y="185" text-anchor="middle" font-family="Arial" font-size="14">Training</text>
    
    <rect x="180" y="140" width="140" height="60" rx="5" fill="#ffffff" stroke="#34a853"/>
    <text x="250" y="170" text-anchor="middle" font-family="Arial" font-size="14">Vertex AI</text>
    <text x="250" y="185" text-anchor="middle" font-family="Arial" font-size="14">Experiments</text>
    
    <rect x="105" y="220" width="140" height="60" rx="5" fill="#ffffff" stroke="#34a853"/>
    <text x="175" y="250" text-anchor="middle" font-family="Arial" font-size="14">Model</text>
    <text x="175" y="265" text-anchor="middle" font-family="Arial" font-size="14">Registry</text>
  </g>
  
  <!-- MLOps Layer -->
  <g transform="translate(400, 450)">
    <rect x="0" y="0" width="350" height="250" rx="10" fill="#fef7e0" stroke="#f9ab00" stroke-width="2"/>
    <text x="175" y="30" text-anchor="middle" font-family="Arial" font-size="18" font-weight="bold" fill="#b06000">MLOps and Automation</text>
    
    <rect x="30" y="60" width="140" height="60" rx="5" fill="#ffffff" stroke="#f9ab00"/>
    <text x="100" y="95" text-anchor="middle" font-family="Arial" font-size="14">Cloud Build</text>
    
    <rect x="180" y="60" width="140" height="60" rx="5" fill="#ffffff" stroke="#f9ab00"/>
    <text x="250" y="95" text-anchor="middle" font-family="Arial" font-size="14">Terraform</text>
    
    <rect x="30" y="140" width="140" height="60" rx="5" fill="#ffffff" stroke="#f9ab00"/>
    <text x="100" y="175" text-anchor="middle" font-family="Arial" font-size="14">GitHub</text>
    
    <rect x="180" y="140" width="140" height="60" rx="5" fill="#ffffff" stroke="#f9ab00"/>
    <text x="250" y="175" text-anchor="middle" font-family="Arial" font-size="14">Artifact Registry</text>
  </g>
  
  <!-- Production Layer -->
  <g transform="translate(800, 100)">
    <rect x="0" y="0" width="350" height="300" rx="10" fill="#fce8e6" stroke="#ea4335" stroke-width="2"/>
    <text x="175" y="30" text-anchor="middle" font-family="Arial" font-size="18" font-weight="bold" fill="#c5221f">Production Serving</text>
    
    <rect x="30" y="60" width="290" height="60" rx="5" fill="#ffffff" stroke="#ea4335"/>
    <text x="175" y="95" text-anchor="middle" font-family="Arial" font-size="14">Vertex AI Prediction Endpoints</text>
    
    <rect x="30" y="140" width="140" height="60" rx="5" fill="#ffffff" stroke="#ea4335"/>
    <text x="100" y="175" text-anchor="middle" font-family="Arial" font-size="14">Cloud Run</text>
    
    <rect x="180" y="140" width="140" height="60" rx="5" fill="#ffffff" stroke="#ea4335"/>
    <text x="250" y="175" text-anchor="middle" font-family="Arial" font-size="14">Cloud Endpoints</text>
    
    <rect x="105" y="220" width="140" height="60" rx="5" fill="#ffffff" stroke="#ea4335"/>
    <text x="175" y="255" text-anchor="middle" font-family="Arial" font-size="14">Firestore</text>
  </g>
  
  <!-- Monitoring Layer -->
  <g transform="translate(800, 450)">
    <rect x="0" y="0" width="350" height="250" rx="10" fill="#f3e8fd" stroke="#9334e6" stroke-width="2"/>
    <text x="175" y="30" text-anchor="middle" font-family="Arial" font-size="18" font-weight="bold" fill="#6200ea">Monitoring and Governance</text>
    
    <rect x="30" y="60" width="140" height="60" rx="5" fill="#ffffff" stroke="#9334e6"/>
    <text x="100" y="95" text-anchor="middle" font-family="Arial" font-size="14">Cloud Monitoring</text>
    
    <rect x="180" y="60" width="140" height="60" rx="5" fill="#ffffff" stroke="#9334e6"/>
    <text x="250" y="95" text-anchor="middle" font-family="Arial" font-size="14">Cloud Logging</text>
    
    <rect x="30" y="140" width="140" height="60" rx="5" fill="#ffffff" stroke="#9334e6"/>
    <text x="100" y="175" text-anchor="middle" font-family="Arial" font-size="14">Evidently AI</text>
    
    <rect x="180" y="140" width="140" height="60" rx="5" fill="#ffffff" stroke="#9334e6"/>
    <text x="250" y="175" text-anchor="middle" font-family="Arial" font-size="14">Model Cards</text>
  </g>
  
  <!-- Connecting lines -->
  <line x1="350" y1="250" x2="400" y2="250" stroke="#4285f4" stroke-width="2"/>
  <line x1="350" y1="350" x2="400" y2="350" stroke="#4285f4" stroke-width="2"/>
  <line x1="750" y1="250" x2="800" y2="250" stroke="#34a853" stroke-width="2"/>
  <line x1="575" y1="450" x2="575" y2="400" stroke="#f9ab00" stroke-width="2"/>
  <line x1="750" y1="575" x2="800" y2="575" stroke="#f9ab00" stroke-width="2"/>
  <line x1="975" y1="400" x2="975" y2="450" stroke="#ea4335" stroke-width="2"/>
</svg>